<svg width="939" height="654" viewBox="0 0 939 654" fill="none" xmlns="http://www.w3.org/2000/svg">
<g clip-path="url(#clip0_121_1534)">
<mask id="mask0_121_1534" style="mask-type:luminance" maskUnits="userSpaceOnUse" x="0" y="0" width="939" height="654">
<path d="M939 0H0V654H939V0Z" fill="white"/>
</mask>
<g mask="url(#mask0_121_1534)">
<path d="M370.539 522.557H3.77673C2.77542 522.555 1.81543 522.114 1.1074 521.33C0.399366 520.545 0.0011104 519.481 0 518.372V122.191C0.0011104 121.081 0.399366 120.018 1.1074 119.233C1.81543 118.448 2.77542 118.007 3.77673 118.006H370.539C371.54 118.007 372.5 118.448 373.208 119.233C373.917 120.018 374.315 121.081 374.316 122.191V518.372C374.315 519.481 373.917 520.545 373.208 521.33C372.5 522.114 371.54 522.556 370.539 522.557Z" fill="#2B303A"/>
<path d="M330.674 154.275H43.6419C42.6407 154.277 41.681 154.719 40.973 155.503C40.2651 156.287 39.8667 157.351 39.8652 158.46V404.911C39.8667 406.02 40.2651 407.084 40.973 407.868C41.681 408.653 42.6407 409.094 43.6419 409.096H330.674C331.675 409.094 332.635 408.653 333.343 407.868C334.051 407.084 334.449 406.02 334.45 404.911V158.46C334.449 157.351 334.051 156.287 333.343 155.503C332.635 154.719 331.675 154.277 330.674 154.275Z" fill="white"/>
<path d="M314.308 457.456H60.0084C59.4521 457.455 58.9188 457.21 58.5255 456.774C58.1321 456.339 57.9109 455.748 57.9102 455.131V442.111C57.9109 441.495 58.1321 440.904 58.5255 440.468C58.9188 440.032 59.4521 439.787 60.0084 439.786H314.308C314.864 439.787 315.397 440.032 315.791 440.468C316.184 440.904 316.405 441.495 316.406 442.111V455.131C316.405 455.748 316.184 456.339 315.791 456.774C315.397 457.21 314.864 457.455 314.308 457.456Z" fill="white"/>
<path d="M226.184 489.076H60.0084C59.4521 489.076 58.9188 488.83 58.5255 488.395C58.1321 487.959 57.9109 487.368 57.9102 486.751V473.731C57.9109 473.115 58.1321 472.524 58.5255 472.088C58.9188 471.652 59.4521 471.407 60.0084 471.406H226.184C226.74 471.407 227.274 471.652 227.667 472.088C228.06 472.524 228.282 473.115 228.282 473.731V486.751C228.282 487.368 228.06 487.959 227.667 488.395C227.274 488.83 226.74 489.076 226.184 489.076Z" fill="white"/>
<path d="M180.067 321.275C200.222 321.275 216.562 303.169 216.562 280.835C216.562 258.5 200.222 240.395 180.067 240.395C159.911 240.395 143.572 258.5 143.572 280.835C143.572 303.169 159.911 321.275 180.067 321.275Z" fill="#A0616A"/>
<path d="M233.461 409.095H152.547L155.19 343.176L155.82 342.442L164.901 331.812H193.797L204.506 343.307L205.371 344.237L228.173 368.455L233.461 409.095Z" fill="#F9A826"/>
<path d="M166.461 409.096H105.245C105.094 394.216 105.01 385.306 105.01 385.306L108.552 382.916C108.556 382.911 108.562 382.908 108.568 382.907H108.577L147.586 356.662L155.777 341.922L155.82 342.443L158.228 373.514C158.228 373.514 162.206 387.762 166.461 409.096Z" fill="#2F2E41"/>
<path d="M269.348 409.096H204.506C205.488 365.702 200.2 341.922 202.92 341.922L204.506 343.308L223.616 360.029L248.803 370.268H248.82L266.184 377.327L269.231 378.564V380.154C269.239 383.967 269.256 394.393 269.348 409.096Z" fill="#2F2E41"/>
<path d="M145.541 293.487C145.541 293.487 148.641 287.453 147.921 267.295C147.2 247.138 174.9 258.539 198.047 256.616C221.194 254.693 216.294 290.269 216.294 290.269C216.294 290.269 217.964 288.155 221.539 270.984C225.115 253.814 216.997 236.703 216.997 236.703C214.606 218.66 201.722 224.443 201.722 224.443C207.927 227.12 206.735 232.843 206.735 232.843C201.482 222.639 188.598 228.421 188.598 228.421C171.413 216.472 153.997 232.208 153.997 232.208C133.237 237.429 145.412 255.723 145.412 255.723C124.535 267.414 145.541 293.487 145.541 293.487Z" fill="#2F2E41"/>
<path d="M113.419 409.096H88.2667C88.4628 405.662 88.4684 402.217 88.2835 398.782C86.7812 392.151 107.914 383.186 108.551 382.917C108.556 382.911 108.562 382.908 108.568 382.907H108.577L112.605 385.307L113.419 409.096Z" fill="#2F2E41"/>
<path d="M273.889 409.096H247.468L244.17 373.012L247.871 370.018C247.871 370.018 248.207 370.101 248.803 370.269H248.82C251.782 371.078 260.947 373.756 266.184 377.327C267.349 378.052 268.382 379.011 269.231 380.155C269.75 380.845 270.009 381.732 269.952 382.628C269.818 383.977 271.362 393.909 273.889 409.096Z" fill="#2F2E41"/>
<path d="M935.223 404.551H568.461C567.46 404.55 566.499 404.108 565.791 403.324C565.083 402.539 564.685 401.475 564.684 400.366V4.18501C564.685 3.07545 565.083 2.01171 565.791 1.22713C566.499 0.442556 567.46 0.00123391 568.461 0H935.223C936.225 0.00121316 937.185 0.442512 937.893 1.22709C938.601 2.01167 938.999 3.07544 939 4.18501V400.366C938.999 401.475 938.601 402.539 937.893 403.324C937.185 404.108 936.225 404.55 935.223 404.551Z" fill="#2B303A"/>
<path d="M895.358 36.2715H608.327C607.325 36.2732 606.366 36.7146 605.658 37.4991C604.95 38.2836 604.551 39.3471 604.55 40.4565V286.907C604.551 288.016 604.95 289.08 605.658 289.864C606.366 290.649 607.325 291.09 608.327 291.092H895.358C896.359 291.09 897.319 290.649 898.027 289.864C898.735 289.08 899.133 288.016 899.135 286.907V40.4565C899.133 39.3471 898.735 38.2836 898.027 37.4991C897.319 36.7146 896.359 36.2732 895.358 36.2715Z" fill="white"/>
<path d="M878.992 339.451H624.692C624.136 339.451 623.603 339.205 623.209 338.77C622.816 338.334 622.595 337.743 622.594 337.126V324.106C622.595 323.49 622.816 322.899 623.209 322.463C623.603 322.027 624.136 321.782 624.692 321.781H878.992C879.548 321.782 880.082 322.027 880.475 322.463C880.868 322.899 881.089 323.49 881.09 324.106V337.126C881.089 337.743 880.868 338.334 880.475 338.77C880.082 339.205 879.548 339.451 878.992 339.451Z" fill="white"/>
<path d="M790.868 371.07H624.692C624.136 371.07 623.603 370.825 623.209 370.389C622.816 369.953 622.595 369.362 622.594 368.745V355.725C622.595 355.109 622.816 354.518 623.209 354.082C623.603 353.646 624.136 353.401 624.692 353.4H790.868C791.425 353.401 791.958 353.646 792.351 354.082C792.745 354.518 792.966 355.109 792.966 355.725V368.745C792.966 369.362 792.745 369.953 792.351 370.389C791.958 370.825 791.425 371.07 790.868 371.07Z" fill="white"/>
<path d="M822.492 291.092C824.112 284.628 825.371 279.057 826.017 275.114C826.217 273.898 826.237 272.654 826.076 271.431C823.659 252.376 780 236.268 774.402 234.278L773.051 217.686L718.095 211.13L711.137 232.353L691.415 240.546C690.701 240.838 690.022 241.225 689.392 241.699C687.738 242.937 686.465 244.707 685.747 246.77C685.028 248.834 684.897 251.092 685.372 253.24L693.773 291.091L822.492 291.092Z" fill="#F9A826"/>
<path d="M708.569 291.092H665.926C667.453 280.545 668.821 271.217 669.711 265.284C672.967 243.689 687.168 241.848 689.392 241.699C689.568 241.681 689.677 241.681 689.686 241.681H698.657L708.569 291.092Z" fill="#F9A826"/>
<path d="M822.492 291.091H832.832C831.917 281.782 829.014 275.514 826.076 271.431C824.115 268.561 821.586 266.229 818.682 264.614L817.902 264.242L808.812 291.091H822.492Z" fill="#F9A826"/>
<path d="M743.426 200.629C765.279 200.629 782.995 180.998 782.995 156.782C782.995 132.566 765.279 112.936 743.426 112.936C721.573 112.936 703.857 132.566 703.857 156.782C703.857 180.998 721.573 200.629 743.426 200.629Z" fill="#A0616A"/>
<path d="M716.867 135.42C720.963 140.791 727.894 142.306 734.289 142.923C747.276 144.185 766.158 142.138 778.85 138.891C779.761 148.619 777.287 159.108 782.457 167.112C784.881 157.423 786.29 147.458 786.657 137.412C786.813 133.104 786.752 128.647 785.173 124.692C783.593 120.737 780.147 117.38 776.179 117.345C779.127 114.868 782.581 113.233 786.234 112.584L773.67 105.588L776.897 101.917L754.151 100.375L760.739 95.7374C750.82 94.228 740.785 93.8783 730.799 94.6942C726.164 95.0722 721.317 95.7951 717.562 98.7717C713.807 101.748 711.636 107.662 713.968 112.031C711.05 112.563 708.301 113.911 705.984 115.948C703.667 117.985 701.858 120.645 700.728 123.674C699.053 128.377 699.207 133.602 699.722 138.614C700.579 146.631 702.26 154.512 704.733 162.105" fill="#2F2E41"/>
<path d="M659.859 654H293.097C292.096 653.999 291.136 653.558 290.428 652.773C289.72 651.988 289.321 650.925 289.32 649.815V253.634C289.321 252.525 289.72 251.461 290.428 250.676C291.136 249.892 292.096 249.45 293.097 249.449H659.859C660.861 249.45 661.821 249.892 662.529 250.676C663.237 251.461 663.635 252.525 663.636 253.634V649.815C663.635 650.925 663.237 651.988 662.529 652.773C661.821 653.558 660.861 653.999 659.859 654Z" fill="#2B303A"/>
<path d="M619.994 285.72H332.963C331.962 285.721 331.002 286.163 330.294 286.947C329.586 287.732 329.188 288.795 329.186 289.905V536.355C329.188 537.465 329.586 538.528 330.294 539.313C331.002 540.097 331.962 540.539 332.963 540.54H619.994C620.995 540.539 621.955 540.097 622.663 539.313C623.371 538.528 623.769 537.465 623.771 536.355V289.905C623.769 288.795 623.371 287.732 622.663 286.947C621.955 286.163 620.995 285.721 619.994 285.72Z" fill="white"/>
<path d="M603.628 588.9H349.328C348.772 588.899 348.239 588.654 347.845 588.218C347.452 587.782 347.231 587.191 347.23 586.575V573.555C347.231 572.938 347.452 572.347 347.845 571.911C348.239 571.475 348.772 571.23 349.328 571.229H603.628C604.184 571.23 604.718 571.475 605.111 571.911C605.504 572.347 605.726 572.938 605.726 573.555V586.575C605.726 587.191 605.504 587.782 605.111 588.218C604.718 588.654 604.184 588.899 603.628 588.9Z" fill="white"/>
<path d="M515.504 620.52H349.328C348.772 620.519 348.239 620.274 347.845 619.838C347.452 619.402 347.231 618.811 347.23 618.195V605.175C347.231 604.558 347.452 603.967 347.845 603.531C348.239 603.096 348.772 602.85 349.328 602.85H515.504C516.061 602.85 516.594 603.096 516.987 603.531C517.381 603.967 517.602 604.558 517.603 605.175V618.195C517.602 618.811 517.381 619.402 516.987 619.838C516.594 620.274 516.061 620.519 515.504 620.52Z" fill="white"/>
<path d="M504.72 540.54H446.953L450.553 480.667L471.392 485.996L491.661 477.356L492.198 477.133L492.232 477.114C492.239 477.132 492.245 477.151 492.248 477.17C492.567 478.593 498.929 506.818 504.72 540.54Z" fill="#F9A826"/>
<path d="M539.533 490.441L534.136 540.539H485.451L491.661 477.356L491.72 476.742L492.198 477.132L492.248 477.169L504.258 486.879L539.533 490.441Z" fill="#2F2E41"/>
<path d="M455.497 540.541H411.896L411.267 501.099L443.352 489.307L450.553 480.667C450.553 480.667 452.828 506.661 455.497 540.541Z" fill="#2F2E41"/>
<path d="M560.524 540.541H524.393L526.709 504.652L539.533 490.441C539.533 490.441 549.68 514.026 560.524 540.541Z" fill="#2F2E41"/>
<path d="M422.177 540.541H403.117C403.201 529.046 403.252 521.104 403.252 518.863C403.156 515.398 403.839 511.961 405.237 508.861C406.636 505.761 408.708 503.094 411.267 501.1L420.893 504.652L422.177 540.541Z" fill="#2F2E41"/>
<path d="M419.204 419.035C419.233 409.296 421.544 399.733 425.909 391.28C430.274 382.827 436.545 375.774 444.107 370.812C460.174 360.302 479.559 360.492 497.29 371.332C509.923 379.056 520.2 398.492 520.2 414.657V461.826H419.204V419.035Z" fill="#2F2E41"/>
<path d="M485.2 455.71C502.878 445.002 509.375 420.441 499.711 400.852C490.047 381.263 467.883 374.064 450.205 384.772C432.527 395.48 426.03 420.041 435.694 439.63C445.357 459.219 467.522 466.418 485.2 455.71Z" fill="#A0616A"/>
<path d="M429.661 420.623C429.384 420.269 428.737 419.441 433.237 381.075L433.38 380.448H433.787C456.595 368.014 479.735 367.702 502.57 379.514C503.273 379.884 503.877 380.449 504.323 381.155C504.77 381.862 505.043 382.684 505.117 383.543C507.781 419.589 507.137 420.375 506.862 420.711C506.444 421.219 505.935 421.625 505.367 421.904C504.799 422.182 504.185 422.326 503.565 422.327H493.447L493.235 421.903C491.498 418.326 489.592 414.853 487.525 411.498C486.575 414.837 485.797 418.234 485.194 421.672L485.071 422.327H433.028C432.39 422.327 431.758 422.175 431.177 421.881C430.596 421.587 430.079 421.158 429.661 420.623Z" fill="#2F2E41"/>
</g>
</g>
<defs>
<clipPath id="clip0_121_1534">
<rect width="939" height="654" fill="white"/>
</clipPath>
</defs>
</svg>
