<?xml version="1.0" standalone="no"?>
<!DOCTYPE svg PUBLIC "-//W3C//DTD SVG 20010904//EN"
 "http://www.w3.org/TR/2001/REC-SVG-20010904/DTD/svg10.dtd">
<svg version="1.0" xmlns="http://www.w3.org/2000/svg"
 width="598.000000pt" height="417.000000pt" viewBox="0 0 598.000000 417.000000"
 preserveAspectRatio="xMidYMid meet">

<g transform="translate(0.000000,417.000000) scale(0.100000,-0.100000)"
fill="#000000" stroke="none">
<path d="M1455 2651 c-46 -21 -101 -79 -112 -119 -5 -15 -8 -130 -8 -257 0
-220 1 -232 23 -272 12 -24 41 -55 64 -70 l41 -28 248 -3 c232 -3 250 -2 287
17 81 41 116 110 110 221 l-3 65 -84 3 c-61 2 -87 -1 -92 -10 -5 -7 -9 -38 -9
-69 0 -87 -5 -89 -198 -89 -218 0 -202 -19 -202 240 0 200 0 201 25 225 23 24
28 25 173 25 136 0 152 -2 176 -21 20 -15 26 -30 26 -57 0 -59 7 -63 101 -60
l84 3 -1 73 c0 63 -4 77 -30 114 -16 23 -49 52 -74 64 -43 22 -55 23 -275 23
-201 1 -235 -2 -270 -18z"/>
<path d="M2191 2656 c-8 -9 -11 -118 -9 -382 l3 -369 86 -3 c105 -3 99 -15 99
186 l0 142 195 0 195 0 2 -162 3 -163 87 -3 c84 -3 88 -2 93 20 3 13 4 118 3
233 l-3 210 -287 3 -288 2 0 131 c0 72 -5 139 -10 150 -9 16 -22 19 -84 19
-50 0 -77 -4 -85 -14z"/>
<path d="M2764 2657 c-3 -8 -4 -49 -2 -93 l3 -79 90 0 90 0 0 90 0 90 -88 3
c-67 2 -89 0 -93 -11z"/>
<path d="M3052 2657 c-9 -11 -12 -104 -10 -383 l3 -369 81 -3 c59 -2 84 1 92
11 8 9 13 91 14 245 l3 232 185 -226 c102 -124 196 -235 209 -245 18 -15 40
-19 97 -19 l74 0 -2 383 -3 382 -73 3 c-46 2 -79 -2 -88 -9 -11 -9 -14 -57
-14 -248 l-1 -236 -27 31 c-15 16 -100 119 -189 226 -89 108 -174 205 -189
214 -36 24 -145 32 -162 11z"/>
<path d="M3892 2661 c-9 -5 -12 -27 -10 -72 l3 -64 143 -3 142 -3 0 -297 c0
-163 4 -303 9 -310 5 -9 30 -12 87 -10 l79 3 7 45 c3 25 7 163 7 308 l1 262
133 0 c90 0 137 4 145 12 16 16 16 110 0 126 -14 14 -724 17 -746 3z"/>
<path d="M1658 1683 c-25 -6 -39 -52 -33 -108 6 -62 22 -75 95 -75 60 0 90 18
90 53 0 25 -24 21 -35 -5 -11 -25 -49 -34 -92 -23 -23 5 -24 9 -21 68 l3 62
53 3 c40 2 54 -1 58 -12 8 -20 34 -21 34 -2 0 36 -84 57 -152 39z"/>
<path d="M1870 1595 c0 -76 3 -95 14 -95 10 0 16 14 18 43 l3 42 58 3 57 3 0
-46 c0 -38 3 -45 20 -45 19 0 20 7 20 95 0 88 -1 95 -20 95 -17 0 -20 -7 -20
-40 l0 -40 -60 0 -60 0 0 40 c0 29 -4 40 -15 40 -12 0 -15 -17 -15 -95z"/>
<path d="M2100 1595 c0 -88 1 -95 20 -95 19 0 20 7 20 95 0 88 -1 95 -20 95
-19 0 -20 -7 -20 -95z"/>
<path d="M2180 1595 c0 -88 1 -95 20 -95 18 0 20 7 20 60 0 33 3 60 8 59 4 0
29 -27 55 -60 29 -36 55 -59 67 -59 19 0 20 7 20 95 0 78 -3 95 -15 95 -12 0
-15 -13 -15 -60 0 -33 -4 -60 -9 -60 -5 0 -32 27 -61 60 -30 34 -60 60 -71 60
-17 0 -19 -8 -19 -95z"/>
<path d="M2420 1675 c0 -10 11 -15 35 -15 l35 0 0 -80 c0 -74 2 -80 21 -80 19
0 20 5 18 78 l-2 77 36 3 c24 2 37 8 37 18 0 11 -18 14 -90 14 -73 0 -90 -3
-90 -15z"/>
<path d="M2748 1595 l-3 -95 93 0 c54 0 92 4 92 10 0 6 -32 10 -75 10 l-75 0
0 30 0 30 65 0 c83 0 85 18 3 22 -60 3 -63 4 -66 31 l-3 27 75 0 c61 0 76 3
76 15 0 12 -17 15 -89 15 l-90 0 -3 -95z"/>
<path d="M2970 1595 l0 -95 85 0 c101 0 115 18 18 22 l-68 3 -3 83 c-2 64 -6
82 -17 82 -12 0 -15 -18 -15 -95z"/>
<path d="M3180 1595 l0 -95 90 0 c108 0 122 18 18 22 -71 3 -73 4 -76 31 l-3
27 65 0 c46 0 66 4 66 13 0 8 -19 12 -62 12 -61 0 -63 1 -66 28 l-3 27 75 0
c61 0 76 3 76 15 0 12 -17 15 -90 15 l-90 0 0 -95z"/>
<path d="M3419 1671 c-21 -16 -24 -28 -24 -81 0 -76 14 -90 95 -90 60 0 90 18
90 53 0 25 -24 21 -35 -5 -8 -20 -18 -23 -60 -23 l-50 0 0 65 0 65 53 3 c40 2
54 -1 58 -12 8 -20 34 -21 34 -2 0 44 -117 63 -161 27z"/>
<path d="M3612 1678 c3 -7 21 -14 41 -16 l37 -3 0 -80 c0 -64 3 -79 15 -79 12
0 15 16 15 80 l0 80 40 0 c29 0 40 4 40 15 0 12 -17 15 -96 15 -72 0 -95 -3
-92 -12z"/>
<path d="M3830 1595 c0 -88 1 -95 20 -95 16 0 20 7 20 30 0 29 1 30 50 30 43
0 52 -3 59 -22 5 -13 7 -26 4 -30 -2 -5 5 -8 16 -8 27 0 29 44 4 60 -17 10
-17 10 0 20 11 8 17 24 17 50 0 51 -17 60 -114 60 l-76 0 0 -95z m155 45 c3
-10 1 -28 -5 -40 -9 -16 -21 -20 -60 -20 l-50 0 0 40 0 40 54 0 c46 0 56 -3
61 -20z"/>
<path d="M4080 1595 c0 -78 3 -95 15 -95 12 0 15 17 15 95 0 78 -3 95 -15 95
-12 0 -15 -17 -15 -95z"/>
<path d="M4192 1674 c-19 -13 -22 -24 -22 -79 0 -82 12 -95 89 -95 62 0 85 12
94 48 4 17 1 22 -14 22 -12 0 -19 -7 -19 -19 0 -22 -19 -31 -65 -31 -45 0 -57
18 -53 82 l3 53 50 3 c37 2 52 -1 61 -13 7 -9 21 -15 31 -13 16 3 15 7 -9 31
-22 22 -36 27 -75 27 -28 0 -58 -7 -71 -16z"/>
</g>
</svg>
