<?xml version="1.0" standalone="no"?>
<!DOCTYPE svg PUBLIC "-//W3C//DTD SVG 20010904//EN"
 "http://www.w3.org/TR/2001/REC-SVG-20010904/DTD/svg10.dtd">
<svg version="1.0" xmlns="http://www.w3.org/2000/svg"
 width="350.000000pt" height="175.000000pt" viewBox="0 0 350.000000 175.000000"
 preserveAspectRatio="xMidYMid meet">

<g transform="translate(0.000000,175.000000) scale(0.100000,-0.100000)"
fill="#000000" stroke="none">
<path d="M90 1067 c0 -56 3 -65 20 -70 19 -5 20 -14 20 -182 0 -168 -1 -177
-20 -182 -17 -5 -20 -14 -20 -69 l0 -64 213 0 c311 0 379 16 427 101 23 40 25
56 28 190 4 165 -5 213 -49 263 -52 60 -93 68 -371 74 l-248 4 0 -65z m455
-102 c24 -23 25 -30 25 -139 0 -63 -5 -126 -11 -139 -17 -37 -50 -47 -154 -47
l-95 0 0 175 0 175 105 0 c99 0 107 -2 130 -25z"/>
<path d="M840 1066 c0 -55 3 -64 20 -69 19 -5 20 -14 20 -182 0 -168 -1 -177
-20 -182 -17 -5 -20 -14 -20 -69 l0 -64 280 0 280 0 0 85 0 85 -74 0 c-66 0
-74 -2 -79 -20 -5 -19 -12 -21 -94 -18 l-88 3 -3 63 -3 62 126 0 125 0 0 55 0
54 -122 3 -123 3 0 60 0 60 88 3 c82 3 87 2 87 -18 0 -18 6 -20 75 -20 l75 0
0 85 0 85 -275 0 -275 0 0 -64z"/>
<path d="M1480 1065 c0 -51 3 -65 15 -65 13 0 15 -27 15 -185 0 -158 -2 -185
-15 -185 -12 0 -15 -14 -15 -65 l0 -65 260 0 260 0 0 85 0 85 -75 0 c-60 0
-75 -3 -75 -15 0 -12 -15 -15 -75 -15 l-75 0 0 180 c0 173 1 180 20 180 18 0
20 7 20 65 l0 65 -130 0 -130 0 0 -65z"/>
<path d="M2070 1065 c0 -58 2 -65 20 -65 19 0 20 -7 20 -181 0 -172 -1 -181
-20 -186 -17 -5 -20 -14 -20 -69 l0 -64 130 0 130 0 0 64 c0 55 -3 64 -20 69
-19 5 -20 14 -20 182 0 168 1 177 20 182 17 5 20 14 20 69 l0 64 -130 0 -130
0 0 -65z"/>
<path d="M2400 1066 l0 -65 38 -3 c34 -3 41 -9 94 -87 66 -96 67 -82 -19 -206
-44 -63 -52 -70 -86 -73 l-37 -3 0 -65 0 -64 155 0 155 0 0 64 c0 42 -4 66
-12 69 -9 3 -5 18 14 53 14 27 30 50 35 51 4 2 21 -20 37 -49 19 -34 25 -53
18 -56 -8 -2 -12 -28 -12 -68 l0 -64 155 0 155 0 0 65 0 65 -39 0 c-37 0 -40
2 -100 93 -33 51 -61 96 -61 100 0 4 25 45 55 92 51 80 57 85 90 85 l35 0 0
65 0 65 -155 0 -155 0 0 -65 c0 -51 3 -65 15 -65 8 0 15 -3 15 -7 0 -14 -45
-93 -52 -93 -4 0 -15 15 -25 33 -13 24 -16 51 -14 115 l3 82 -151 0 -151 0 0
-64z"/>
<path d="M3150 1066 c0 -55 3 -64 20 -69 19 -5 20 -14 20 -182 0 -168 -1 -177
-20 -182 -17 -5 -20 -14 -20 -69 l0 -64 130 0 130 0 0 65 c0 58 -2 65 -20 65
-19 0 -20 7 -20 181 0 172 1 181 20 186 17 5 20 14 20 69 l0 64 -130 0 -130 0
0 -64z"/>
</g>
</svg>
