<?xml version="1.0" standalone="no"?>
<!DOCTYPE svg PUBLIC "-//W3C//DTD SVG 20010904//EN"
 "http://www.w3.org/TR/2001/REC-SVG-20010904/DTD/svg10.dtd">
<svg version="1.0" xmlns="http://www.w3.org/2000/svg"
 width="12500.000000pt" height="12500.000000pt" viewBox="0 0 12500.000000 12500.000000"
 preserveAspectRatio="xMidYMid meet">

<g transform="translate(0.000000,12500.000000) scale(0.100000,-0.100000)"
fill="#000000" stroke="none">
<path d="M8130 54404 c-947 -955 -1719 -1742 -1716 -1749 7 -19 3688 -6049
3701 -6063 9 -10 131 107 598 578 l586 590 14 -27 c8 -16 612 -1209 1342
-2653 730 -1444 1331 -2629 1335 -2633 4 -5 6 2 4 15 -2 13 -155 1886 -340
4163 -185 2277 -338 4147 -341 4155 -3 10 -208 -190 -628 -614 -342 -345 -625
-624 -627 -620 -3 5 -499 1491 -1102 3302 -604 1810 -1099 3292 -1101 3292 -2
0 -778 -781 -1725 -1736z m2775 -1805 l1100 -3301 602 608 c331 335 603 607
603 604 4 -26 607 -7436 606 -7437 -1 -2 -558 1096 -1237 2438 -679 1342
-1237 2446 -1241 2452 -5 8 -225 -208 -600 -586 l-593 -598 -1788 2931 -1789
2931 133 137 c291 299 3092 3122 3098 3122 3 0 501 -1486 1106 -3301z"/>
</g>
</svg>
